<svg width="500" height="500" viewBox="0 0 500 500" fill="none" xmlns="http://www.w3.org/2000/svg">
<g clip-path="url(#clip0_8_2)">
<path d="M108.265 407.883C136.693 446.748 184.687 459.972 198.454 463.583C273.622 483.287 338.122 452.005 351.202 445.278C380.286 430.32 404.123 408.69 415.726 389.729C421.172 380.828 424.726 371.615 424.726 371.615C428.287 362.467 431.306 350.393 431.745 333.486C431.992 324.042 438.493 254.998 429.661 232.585C416.109 198.219 408.906 155.943 367.397 133.099C340.542 118.317 313.047 117.877 267.641 117.15C241.808 116.735 208.572 116.479 169.147 129.359C146.076 136.902 112.553 147.857 94.4896 175.631C88.0931 185.459 87.4862 194.584 82.3196 211.731C73.4955 241.023 76.4741 264.323 77.7438 292.304C79.0535 321.269 79.7722 337.114 86.2325 358.879C90.5367 373.381 95.6635 390.672 108.249 407.883H108.265Z" fill="#FDDABB" stroke="black" stroke-width="15" stroke-miterlimit="10"/>
<path d="M245.736 364.936C234.445 359.079 218.242 358.496 215.232 373.925C213.954 380.501 214.712 388.067 220.829 392.023C225.413 394.987 231.746 395.546 237.064 394.875L234.645 385.942C226.068 390.92 216.829 400.197 220.326 411.055C224.191 423.057 238.789 422.433 246.072 413.9C250.057 409.234 243.309 402.418 239.292 407.116C236.417 410.48 229.797 413.189 229.118 406.797C228.559 401.523 235.235 396.681 239.476 394.22C243.285 392.007 241.983 384.664 237.056 385.287C234.094 385.662 230.732 385.75 227.873 384.791C223.888 383.465 223.912 379.406 224.471 376.474C225.389 371.592 228.048 369.85 232.992 370.617C235.731 371.04 238.494 371.975 240.897 373.222C246.367 376.058 251.215 367.788 245.736 364.944V364.936Z" fill="black"/>
<path d="M146.42 290.227H188.712" stroke="#1D1D1B" stroke-width="10" stroke-linecap="round" stroke-linejoin="round"/>
<path d="M146.42 303.842H188.712" stroke="#1D1D1B" stroke-width="10" stroke-linecap="round" stroke-linejoin="round"/>
<path d="M146.42 317.458H188.712" stroke="#1D1D1B" stroke-width="10" stroke-linecap="round" stroke-linejoin="round"/>
<path d="M292.764 290.227H335.055" stroke="#1D1D1B" stroke-width="10" stroke-linecap="round" stroke-linejoin="round"/>
<path d="M292.764 303.842H335.055" stroke="#1D1D1B" stroke-width="10" stroke-linecap="round" stroke-linejoin="round"/>
<path d="M292.764 317.458H335.055" stroke="#1D1D1B" stroke-width="10" stroke-linecap="round" stroke-linejoin="round"/>
<path d="M332.237 447.291C355.003 424.886 370.519 404.455 380.717 389.458C391.641 373.381 400.154 358.08 402.917 359.279C405.624 360.453 401.136 376.857 396.744 391.032C389.437 401.891 382.123 412.749 374.816 423.608C368.954 427.883 362.111 432.381 354.269 436.736C346.419 441.107 338.968 444.558 332.237 447.291Z" fill="#F3A980"/>
<path d="M402.478 346.063C402.478 346.063 389.844 413.596 376.301 419.853C376.301 419.853 412.675 397.032 425.875 377.368C426.746 376.066 428.926 376.817 428.67 378.335C426.514 391.327 421.555 414.195 412.404 422.361C412.404 422.361 459.247 369.107 463.839 283.795C463.847 283.627 463.887 283.467 463.959 283.307C465.604 279.784 485.192 236.117 467.943 188.99C467.919 188.935 467.904 188.879 467.872 188.823C466.953 187.041 450.575 155.447 443.995 151.796C443.931 151.756 443.859 151.724 443.795 151.684C442.174 150.765 443.524 148.48 445.24 149.231C446.151 149.631 447.085 150.006 448.019 150.318C449.505 150.821 450.727 149.135 449.672 148.048C444.442 142.655 433.837 130.893 423.24 114.274C408.427 91.0541 359.811 43.9277 320.434 48.0746C320.018 48.1145 319.611 48.0107 319.292 47.763C314.492 44.0395 274.58 15.0829 225.525 40.0204C225.333 40.1163 225.126 40.1802 224.902 40.1882C217.116 40.6517 71.7944 50.3518 63.4974 126.467C63.4575 126.858 63.2498 127.21 62.9064 127.442C57.2047 131.405 7.46251 168.192 36.9054 225.921C36.9852 226.081 37.0331 226.257 37.0491 226.433C37.2967 230.516 40.0118 280.575 26.0929 315.604C25.6537 316.699 26.7956 317.793 27.9935 317.426C29.6385 316.914 31.9224 315.796 34.6694 313.383C35.7315 312.448 37.4724 313.263 37.2408 314.597C35.6996 323.578 37.0331 342.355 63.3616 367.141C63.4095 367.181 63.4495 367.221 63.5054 367.261C64.6393 368.1 79.205 379.31 74.9088 400.5C74.5894 402.058 76.8333 402.865 77.7197 401.507C82.1677 394.611 87.9572 383.489 89.0193 371.016C89.1151 369.914 90.4647 369.33 91.431 369.977C95.0405 372.414 102.347 377.432 108.879 382.442C110.684 383.825 113.248 381.923 112.186 379.989C100.319 358.312 78.6141 307.654 106.763 265.905C106.763 265.905 103.17 269.228 107.482 291.114C107.785 292.664 110.189 292.664 110.493 291.114C113.519 275.445 121.656 240.208 135.176 229.757C136.078 229.054 137.468 229.549 137.652 230.62C138.801 237.244 141.533 257.067 135.607 269.468C134.984 270.763 136.597 272.001 137.867 271.194C150.692 263.028 181.572 241.079 193.615 212.418C194.166 211.107 196.21 211.275 196.521 212.65C198.917 223.213 208.931 245.497 250.376 264.402C251.31 264.826 252.42 264.275 252.564 263.324C254.057 253.352 264.008 208.007 322.358 194C323.125 193.817 323.923 194.208 324.179 194.895C326.207 200.273 335.351 222.086 354.54 234.631C375.47 248.31 390.579 291.977 392 296.204C392.072 296.427 392.088 296.643 392.04 296.875C391.577 299.144 388.822 312.16 386.355 315.292C383.831 318.496 383.951 327.925 383.983 329.211C383.983 329.315 383.983 329.411 383.951 329.515C383.416 331.912 376.532 361.795 360.29 374.7C360.29 374.7 391.034 358.959 402.486 346.039L402.478 346.063Z" fill="#202020" stroke="black" stroke-width="15" stroke-linecap="round" stroke-linejoin="round"/>
<path opacity="0.36" d="M455.638 310.234C454.999 316.059 453.809 322.372 437.726 367.141C436.225 371.304 435.003 374.7 434.236 376.801C434.308 373.989 432.647 371.512 430.228 370.681C427.425 369.722 424.973 371.448 424.742 371.624C415.111 380.485 405.48 389.338 395.858 398.199C403.316 366.654 410.767 335.1 418.225 303.555C422.506 285.425 423.831 246.169 415.103 204.795C398.669 126.866 345.676 75.8487 319.092 53.6997C323.652 53.5879 330.264 53.8116 337.97 55.5535C347.361 57.6709 355.459 61.3864 365.497 67.7706C374.225 73.3158 396.177 87.2667 412.524 109.983C414.137 112.228 431.729 136.822 434.556 139.882C435.929 141.369 436.736 143.374 438.309 144.653C438.453 144.765 438.868 145.092 438.892 145.556C438.916 146.067 438.437 146.411 438.086 146.81C437.67 147.289 437.231 148.096 437.175 149.495C437.175 149.495 436.984 150.837 437.335 152.267C437.974 154.88 440.274 156.63 441.28 157.453C443.987 159.658 445.768 162.822 448.155 165.371C453.074 170.629 458.688 182.566 462.402 193.265C466.075 203.844 470.451 216.469 470.028 233.145C469.661 247.599 465.788 260.647 463.576 268.134C461.387 275.517 459.439 280.143 457.746 289.188C455.925 298.864 456.58 301.949 455.662 310.242L455.638 310.234Z" fill="black"/>
</g>
<defs>
<clipPath id="clip0_8_2">
<rect width="461" height="452" fill="white" transform="translate(20 24)"/>
</clipPath>
</defs>
</svg>
